<svg height="512pt" viewBox="0 0 512 512" width="512pt" xmlns="http://www.w3.org/2000/svg"><path d="m436.75 512h-421.75c-8.285156 0-15-6.714844-15-15v-421.75c0-8.285156 6.714844-15 15-15h421.25c8.640625 0 15.5 7.453125 15.5 15.503906v421.246094c0 8.285156-6.714844 15-15 15zm0 0" fill="#fed32d"/><path d="m436.25 60.25h-210.371094v451.75h210.871094c8.28125 0 15-6.71875 15-15v-421.25c0-8.070312-6.890625-15.5-15.5-15.5zm0 0" fill="#fdc334"/><path d="m497 451.75h-421.75c-8.285156 0-15-6.714844-15-15v-421.75c0-8.285156 6.714844-15 15-15h421.75c8.285156 0 15 6.714844 15 15v421.75c0 8.285156-6.714844 15-15 15zm0 0" fill="#fe9e24"/><path d="m497 0h-210.511719v451.75h210.511719c8.28125 0 15-6.71875 15-15v-421.75c0-8.28125-6.71875-15-15-15zm0 0" fill="#fd7b29"/><path d="m286.125 391.5c-91.324219 0-165.625-74.300781-165.625-165.625s74.300781-165.625 165.625-165.625 165.625 74.300781 165.625 165.625-74.300781 165.625-165.625 165.625zm0 0" fill="#db166c"/><path d="m286.488281 60.25v331.25c91.160157-.199219 165.261719-74.421875 165.261719-165.621094 0-91.207031-74.101562-165.429687-165.261719-165.628906zm0 0" fill="#bf0c4c"/><path d="m322.390625 138.328125-29.035156-15.972656c-9.984375-5.488281-22.230469 1.746093-22.230469 13.144531v106.503906h-15.1875c-24.625 0-45.0625 19.941406-45.0625 45.1875 0 24.625 19.941406 45.0625 45.1875 45.0625 24.847656 0 45.0625-20.214844 45.0625-45.0625 0-3.0625 0-125.746094 0-126.324218l6.808594 3.746093c14.457031 7.953125 23.441406 23.144531 23.441406 39.648438v21.613281c0 8.28125 6.714844 15 15 15s15-6.71875 15-15v-21.613281c0-27.445313-14.9375-52.710938-38.984375-65.933594zm0 0" fill="#fed32d"/><path d="m361.378906 204.261719v21.617187c0 8.28125-6.71875 15-15 15-8.289062 0-15-6.71875-15-15v-21.617187c0-16.5-8.988281-31.691407-23.449218-39.652344l-6.808594-3.738281v126.320312c0 13.128906-5.640625 24.957032-14.632813 33.199219v-199.878906c4.851563.101562 4.445313.519531 35.902344 17.816406 24.050781 13.222656 38.988281 38.492187 38.988281 65.933594zm0 0" fill="#fdc334"/></svg>