<?xml version="1.0" encoding="iso-8859-1"?>
<!-- Generator: Adobe Illustrator 19.0.0, SVG Export Plug-In . SVG Version: 6.00 Build 0)  -->
<svg xmlns="http://www.w3.org/2000/svg" xmlns:xlink="http://www.w3.org/1999/xlink" version="1.1" id="Layer_1" x="0px" y="0px" viewBox="0 0 512 512" style="enable-background:new 0 0 512 512;" xml:space="preserve" width="512" height="512">
<g>
	<g>
		<g>
			<g>
				<g>
					<g>
						<g>
							<path style="fill:#EF8229;" d="M487.922,492.131c-4.238,0-7.674-3.436-7.674-7.674V353.664c0-4.238,3.436-7.674,7.674-7.674         c4.238,0,7.674,3.436,7.674,7.674v130.793C495.596,488.695,492.16,492.131,487.922,492.131z"/>
						</g>
						<g>
							<path style="fill:#EF8229;" d="M350.565,437.309c-4.238,0-7.674-3.436-7.674-7.674V320.633c0-4.238,3.436-7.674,7.674-7.674         c4.238,0,7.674,3.436,7.674,7.674v109.002C358.239,433.873,354.803,437.309,350.565,437.309z"/>
						</g>
						<path style="fill:#FF9C43;" d="M342.891,276.081v44.552l152.705,36.613v-45.595c0-1.715-1.171-3.208-2.837-3.615        l-145.261-35.57C345.153,271.891,342.891,273.667,342.891,276.081z"/>
						<path style="fill:#EF8229;" d="M492.759,308.035l-50.49-12.363v48.788l53.327,12.786v-45.595        C495.596,309.936,494.425,308.443,492.759,308.035z"/>
						<ellipse style="fill:#FF9C43;" cx="327.58" cy="429.634" rx="30.659" ry="20.515"/>
						<ellipse style="fill:#EF8229;" cx="464.937" cy="484.457" rx="30.659" ry="20.515"/>
					</g>
				</g>
			</g>
		</g>
		<g>
			<g>
				<path style="fill:#AA4B21;" d="M168.752,512c-1.964,0-3.928-0.749-5.426-2.248c-2.997-2.997-2.997-7.856,0-10.853l14.435-14.436      c3.779-3.779,5.86-8.803,5.86-14.148s-2.081-10.368-5.86-14.148c-3.779-3.779-8.804-5.86-14.148-5.86      c-5.344,0-10.368,2.081-14.147,5.86l-36.556,36.556c-22.047,22.047-57.922,22.048-79.97,0c-22.048-22.048-22.048-57.922,0-79.97      l15.148-15.148c2.997-2.997,7.856-2.997,10.853,0c2.997,2.997,2.997,7.856,0,10.853l-15.148,15.148      c-7.781,7.781-12.067,18.127-12.067,29.132c0,11.004,4.285,21.35,12.067,29.132c7.782,7.781,18.128,12.067,29.132,12.067      c11.005,0,21.351-4.285,29.132-12.067l36.556-36.556c6.678-6.678,15.556-10.356,25-10.356c9.444,0,18.322,3.678,25.001,10.356      c6.678,6.678,10.356,15.557,10.356,25.001s-3.678,18.322-10.356,25.001l-14.435,14.436C172.68,511.251,170.716,512,168.752,512z      "/>
			</g>
			<g>
				<g>
					<path style="fill:#454851;" d="M54.709,413.273l-11.435-11.435c-7.165-7.165-7.165-18.781,0-25.945l69.444-69.444l37.38,37.38       l-69.444,69.444C73.49,420.437,61.874,420.437,54.709,413.273z"/>
					<g>
						<circle style="fill:#F43B45;" cx="364.732" cy="91.814" r="91.814"/>
						<path style="fill:#D82B2B;" d="M295.566,152.191c1.356,1.55,2.766,3.069,4.244,4.546c35.856,35.856,93.989,35.856,129.845,0        s35.856-93.989,0-129.845c-6.551-6.551-13.849-11.9-21.616-16.057l0,0c18.596,34.742,13.247,78.925-16.057,108.229        C366.532,144.513,328.016,160.58,295.566,152.191z"/>
						<path style="fill:#D82B2B;" d="M318.294,12.59c-4.626,2.716-9.053,5.892-13.246,9.488        c7.454,23.114,26.469,51.299,52.296,77.125c25.824,25.824,54.011,44.841,77.124,52.296c3.595-4.192,6.772-8.619,9.488-13.245        c-21.15-5.17-49.987-24.132-75.758-49.903C342.423,62.576,323.463,33.741,318.294,12.59z"/>
						<path style="fill:#345863;" d="M89.943,403.827L52.72,366.604c-4.347-4.347-4.561-11.326-0.489-15.932l221.107-250.035l0,0        c17.113,36.268,46.303,65.457,82.57,82.57l0,0L105.875,404.315C101.269,408.388,94.29,408.174,89.943,403.827z"/>
						<g>
							<path style="fill:#1E4751;" d="M355.909,183.208c-15.818-7.464-30.289-17.226-42.999-28.87L62.178,376.062l27.765,27.765         c4.347,4.347,11.326,4.561,15.932,0.489L355.909,183.208L355.909,183.208z"/>
						</g>
					</g>
				</g>
				<polygon style="fill:#FFE471;" points="77.521,322.074 134.472,379.026 162.345,354.378 102.169,294.201     "/>
				<polygon style="fill:#F2CA20;" points="98.971,343.525 134.472,379.026 162.345,354.378 126.845,318.877     "/>
			</g>
		</g>
	</g>
</g>















</svg>
