<svg id="Capa_1" enable-background="new 0 0 512 512" height="512" viewBox="0 0 512 512" width="512" xmlns="http://www.w3.org/2000/svg"><g><g><path d="m242.025 7.5c-21.123.021-38.169 17.315-38.169 38.437v250.734c-12.969-1.296-27.037-.648-41.792 2.225-2.098.409-4.209.862-6.333 1.36-69.036 16.206-125 74.116-125 129.344s55.964 86.862 125 70.656c68.813-16.153 124.998-74.023 125-129.341v-.003c0-.002 0-.003 0-.003v-235.287c73.68 17.894 135.3 72.227 170.045 139.754 7.583 14.737 30.491 10.252 30.491-7.876.001-143.684-95.498-260.145-239.242-260z" fill="#ffb39d"/><path d="m116.754 386.589c0-30.999 17.633-62.853 45.31-87.693-2.099.409-4.208.861-6.333 1.36-69.036 16.206-125 74.115-125 129.344 0 55.228 55.964 86.862 125 70.656 30.204-7.09 57.973-22.218 79.628-41.639-66.064 12.845-118.605-18.516-118.605-72.028z" fill="#ff8f71"/></g><g><ellipse cx="73.212" cy="426.206" fill="#ea5b70" rx="29.355" ry="23.377" transform="matrix(.985 -.174 .174 .985 -72.897 19.188)"/><ellipse cx="229.908" cy="398.577" fill="#ff8e9e" rx="29.355" ry="23.377" transform="matrix(.985 -.174 .174 .985 -65.721 45.98)"/></g><g><path d="m38.232 429.601c0-79.819 117.527-149.394 192.799-118.774 3.837 1.562 8.213-.284 9.773-4.121 1.561-3.837-.285-8.213-4.121-9.773-7.984-3.248-16.453-5.579-25.326-6.979v-244.016c0-17.042 13.762-30.92 30.669-30.938h.269c58.383 0 110.873 19.858 151.794 57.428 3.051 2.801 7.797 2.598 10.597-.453 2.802-3.051 2.599-7.796-.452-10.597-43.737-40.154-99.734-61.378-161.939-61.378h-.277c-25.178.025-45.661 20.633-45.661 45.938v242.553c-79.649-3.167-173.125 64.199-173.125 141.11 0 10.708 1.931 20.872 5.739 30.206 1.566 3.837 5.944 5.676 9.777 4.111 3.835-1.565 5.676-5.942 4.111-9.777-3.07-7.528-4.627-15.784-4.627-24.54z"/><path d="m425.615 83.74c-2.665-3.173-7.397-3.583-10.566-.918-3.172 2.664-3.583 7.395-.918 10.567 38.458 45.775 59.638 107.609 59.638 174.111 0 10.402-12.366 12.135-16.322 4.445-38.21-74.267-104.205-126.431-174.944-143.611-4.721-1.147-9.27 2.43-9.27 7.288v235.293c-.004 62.117-76.53 126.085-152.759 126.085-25.212 0-47.266-7.434-62.154-20.94-3.042-2.76-7.781-2.93-10.672-.013-3.012 3.039-2.873 7.943.251 10.81 17.665 16.214 43.44 25.143 72.575 25.143 83.806 0 167.755-69.883 167.757-141.091v-225.526c62.736 18.243 121.209 66.046 155.876 133.423 11.155 21.69 44.66 14.677 44.66-11.307.001-70.025-22.426-135.285-63.152-183.759z"/><path d="m82.767 381.87c-4.079.719-6.803 4.609-6.084 8.688l2.083 11.818c.719 4.079 4.608 6.803 8.688 6.084 4.079-.719 6.803-4.609 6.084-8.688l-2.083-11.818c-.719-4.079-4.604-6.804-8.688-6.084z"/><path d="m205.767 360.182c-4.079.719-6.803 4.609-6.084 8.688l2.083 11.817c.719 4.079 4.608 6.803 8.688 6.084 4.079-.719 6.803-4.609 6.084-8.688l-2.083-11.817c-.718-4.079-4.607-6.802-8.688-6.084z"/><path d="m157.381 383.148c-4.498 7.464-14.518 9.227-21.292 3.754-3.222-2.602-7.945-2.102-10.547 1.122-2.603 3.222-2.101 7.944 1.122 10.547 13.892 11.221 34.396 7.533 43.565-7.681 2.138-3.548.995-8.157-2.553-10.295-3.55-2.137-8.157-.993-10.295 2.553z"/></g></g></svg>